<svg width="99" height="90" viewBox="0 0 99 90" fill="none" xmlns="http://www.w3.org/2000/svg">
<path d="M97.2302 16.4836L97.2394 16.4537L44.0578 0.0899359L44.0486 0.119851C43.8574 0.0605965 43.6652 0 43.4545 0H22.9999C22.9453 0 22.8996 0.0266547 22.8459 0.0308734C22.7569 0.037585 22.6804 0.0638563 22.593 0.0820737C22.3268 0.137493 22.0877 0.236825 21.8704 0.384865C21.8244 0.415546 21.7653 0.412286 21.7216 0.447379L1.26704 16.8111L1.2868 16.8359C0.818515 17.2106 0.5 17.7623 0.5 18.4091V26.5909C0.5 27.7216 1.41489 28.6365 2.54552 28.6365H20.9546V70.7439L17.463 74.2355C17.0795 74.619 16.8637 75.1383 16.8637 75.6818V87.9545C16.8637 89.0851 17.7786 90 18.9093 90H47.5455C48.6761 90 49.591 89.0851 49.591 87.9545V75.6818C49.591 75.1385 49.3753 74.619 48.9918 74.2355L45.5002 70.7439V28.6365H74.1363V36.8183C73.3612 36.8183 72.6541 37.2557 72.3065 37.9489C71.9588 38.6422 72.0348 39.4711 72.4982 40.0903L78.309 47.8379C78.2808 47.9734 78.2271 48.1 78.2271 48.2442C78.2271 49.5626 77.7116 50.8031 76.7808 51.7358C75.0751 53.4415 74.1363 55.7087 74.1363 58.1197V59.3182C74.1363 62.702 76.8888 65.4546 80.2726 65.4546C83.6564 65.4546 86.409 62.702 86.409 59.3182C86.409 58.1876 85.4941 57.2727 84.3635 57.2727C83.2328 57.2727 82.3179 58.1876 82.3179 59.3182C82.3179 60.4467 81.399 61.3637 80.2724 61.3637C79.1458 61.3637 78.2269 60.4469 78.2269 59.3182V58.1197C78.2269 56.8014 78.7424 55.5609 79.6732 54.6281C81.3791 52.9222 82.3179 50.655 82.3179 48.244C82.3179 48.1 82.2643 47.9734 82.2361 47.8377L88.0468 40.0901C88.5103 39.471 88.5862 38.642 88.2386 37.9488C87.8909 37.2555 87.1839 36.8181 86.4088 36.8181V28.6363H96.636C97.7666 28.6363 98.6815 27.7214 98.6815 26.5907V18.4089C98.6817 17.4892 98.065 16.7411 97.2302 16.4836ZM41.409 4.09103V8.14505L32.4662 4.09103H41.409ZM25.0454 18.4091V5.21782L39.2917 11.6756L25.0454 21.3616V18.4091ZM41.409 15.1831V18.4091V26.5909V31.3261L27.1648 24.8689L41.409 15.1831ZM25.0454 28.3994L39.2917 34.8566L25.0454 44.5446V28.3994ZM41.409 38.3645V54.509L27.1644 48.0519L41.409 38.3645ZM25.0454 51.5826L39.2917 58.0398L25.0454 67.726V51.5826ZM41.409 61.5474V69.5454H29.6465L41.409 61.5474ZM20.9546 6.30261V16.3635H8.37812L20.9546 6.30261ZM4.59084 24.5454V20.4546H20.9544V24.5454H4.59084ZM45.5 85.909H20.9546V76.5286L23.8469 73.6363H42.6075L45.4998 76.5286L45.5 85.909ZM45.5 4.81608L83.0298 16.3637H45.5V4.81608ZM80.2726 43.6356L78.2271 40.909H82.3179L80.2726 43.6356ZM82.3181 36.8181H78.2273V28.6363H82.3181V36.8181ZM94.5908 24.5454H45.5V20.4546H94.5908V24.5454Z" fill="#715DBF"/>
</svg>
