<svg width="193" height="57" viewBox="0 0 193 57" fill="none" xmlns="http://www.w3.org/2000/svg">
<path d="M55.6735 14.5768L55.6735 26.7936L43.5769 25.7898L43.0241 32.4506L55.6735 33.5003L55.6735 45.7172L42.0171 44.5839L41.0967 55.6735L28.8799 55.6735L29.8837 43.5769L23.2229 43.0241L22.1732 55.6735L9.95632 55.6735L11.0896 42.0171L-6.37171e-07 41.0967L-1.17119e-06 28.8799L12.0967 29.8836L12.6494 23.2228L-1.46435e-06 22.1732L-1.99836e-06 9.95631L13.6564 11.0896L14.5769 3.17752e-06L26.7938 2.6435e-06L25.7899 12.0966L32.4507 12.6494L33.5003 2.35035e-06L45.7174 1.81633e-06L44.5839 13.6564L55.6735 14.5768ZM52.4114 23.2495L52.4114 17.5792L41.0631 16.6375L42.1732 3.26212L36.503 3.26212L35.4317 16.1702L22.269 15.0777L23.2496 3.26212L17.5793 3.26212L16.6375 14.6104L3.26212 13.5004L3.26212 19.1706L16.1702 20.2419L15.0778 33.4046L3.26212 32.4241L3.26212 38.0943L14.6104 39.036L13.5004 52.4114L19.1706 52.4114L20.2419 39.5033L33.4046 40.5958L32.4241 52.4114L38.0943 52.4114L39.036 41.0631L52.4114 42.1731L52.4114 36.5029L39.5033 35.4316L40.5958 22.2689L52.4114 23.2495ZM34.9644 21.8016L33.8719 34.9644L20.7092 33.8719L21.8016 20.7091L34.9644 21.8016ZM30.8907 31.4436L31.4436 24.7828L24.7828 24.2299L24.23 30.8907L30.8907 31.4436Z" fill="#715DBF"/>
<path fill-rule="evenodd" clip-rule="evenodd" d="M93.9812 42.0484V56.5107H86.3003L86.2883 56.3205C85.3166 56.6384 84.2562 56.7869 83.1396 56.7869C81.1637 56.7869 79.319 56.3503 77.6672 55.4189L77.6503 55.4093L77.6335 55.3995C75.9741 54.4258 74.6977 53.0182 73.804 51.2555L73.7986 51.2447C72.8938 49.4366 72.4891 47.3696 72.4891 45.1231C72.4891 42.8864 72.9062 40.8274 73.8393 39.0303C74.7674 37.2245 76.117 35.8038 77.8629 34.8247C79.6061 33.8472 81.5918 33.4041 83.7399 33.4041C86.038 33.4041 88.1297 33.8119 89.8463 34.8191C91.598 35.8469 92.8756 37.4511 93.754 39.4294L94.7292 41.6256L93.675 42.0484H93.9812ZM91.6801 40.3729C91.3407 39.6087 90.944 38.9426 90.49 38.3746C89.9704 37.7247 89.3757 37.2032 88.7059 36.8102C87.4508 36.0738 85.7954 35.7055 83.7399 35.7055C81.9027 35.7055 80.311 36.083 78.9649 36.8378C77.6188 37.5927 76.582 38.679 75.8543 40.0967C75.1267 41.496 74.7629 43.1715 74.7629 45.1231C74.7629 47.0932 75.1176 48.787 75.827 50.2047C76.5365 51.604 77.5188 52.6719 78.7739 53.4084C80.0472 54.1264 81.5025 54.4855 83.1396 54.4855C84.297 54.4855 85.2959 54.2972 86.1363 53.9208C87.0394 53.5163 87.7596 52.8944 88.2966 52.0551L88.4331 54.2093H91.7074V44.3498H83.2488V47.5535H87.7236V47.8296C87.7236 48.3198 87.6364 48.7519 87.462 49.126C87.3709 49.3213 87.2561 49.5007 87.1175 49.6643C87.0615 49.7304 87.0016 49.794 86.9378 49.8549C86.8599 49.9293 86.7762 49.9999 86.6868 50.0667C86.0137 50.5822 85.1224 50.8399 84.0128 50.8399C82.7925 50.8399 81.8249 50.5116 81.1099 49.8549C81.0639 49.8126 81.0189 49.769 80.975 49.724C80.0533 48.78 79.5925 47.2372 79.5925 45.0955C79.5925 43.2359 79.9563 41.8274 80.6839 40.87C81.4297 39.9126 82.4939 39.4339 83.8763 39.4339C84.7677 39.4339 85.5135 39.6548 86.1138 40.0967C86.426 40.3266 86.6866 40.6187 86.8955 40.973C87.0785 41.2836 87.2219 41.6421 87.3256 42.0484C87.3311 42.0697 87.3364 42.0912 87.3416 42.1128L91.6801 40.3729ZM84.8706 42.0484C84.8323 42.0019 84.7993 41.9748 84.7764 41.958C84.6377 41.8559 84.386 41.7354 83.8763 41.7354C83.3 41.7354 82.9533 41.8602 82.7121 42.0484H84.8706ZM117.847 35.9817L124.15 54.2093H119.32L118.092 50.0943H111.871L110.616 54.2093H105.896L112.226 35.9817H117.847ZM112.854 46.863H117.11L115.8 42.4994L115.009 39.6272H114.955L114.218 42.4718L112.854 46.863ZM113.549 52.3957L112.294 56.5107H102.686L110.615 33.6802H119.46L127.355 56.5107H117.632L116.404 52.3957H113.549ZM161.87 56.5107H153.175V55.1424L152.74 56.5107H145.634L145.199 55.1424V56.5107H136.476V33.6802H147.112L149.321 40.9034L151.502 33.6802H161.87V56.5107ZM150.374 45.2888L149.337 49.1277H149.282L148.273 45.2612L145.435 35.9817H138.75V54.2093H142.925V45.8412L142.788 40.2348H142.843L147.291 54.2093H151.083L155.531 40.2348H155.585L155.449 45.8412V54.2093H159.596V35.9817H153.184L150.374 45.2888ZM192.744 48.2347V56.5107H173.817V33.6802H192.389V41.9563H190.479V48.2347H192.744ZM180.784 50.5361V46.8078H188.205V43.3556H180.784V39.6548H190.115V35.9817H176.09V54.2093H190.47V50.5361H180.784Z" fill="#715DBF"/>
<path fill-rule="evenodd" clip-rule="evenodd" d="M93.5118 1.38959V24.2201H84.1765V16.8738H81.8243V24.2201H72.4891V1.38959H81.8243V8.59778H84.1765V1.38959H93.5118ZM86.4736 10.8992H79.5273V3.69106H74.7861V21.9187H79.5273V14.5724H86.4736V21.9187H91.2147V3.69106H86.4736V10.8992ZM119.198 3.69106L125.566 21.9187H120.687L119.446 17.8036H113.161L111.893 21.9187H107.125L113.52 3.69106H119.198ZM114.154 14.5724H118.454L117.131 10.2088L116.331 7.33658H116.276L115.532 10.1812L114.154 14.5724ZM114.856 20.1051L113.588 24.2201H103.882L111.892 1.38959H120.828L128.803 24.2201H118.981L117.74 20.1051H114.856ZM151.499 7.77846C150.691 7.33658 149.717 7.11564 148.577 7.11564C147.622 7.11564 146.887 7.28134 146.372 7.61275C145.858 7.94416 145.6 8.38604 145.6 8.9384C145.6 9.39869 145.867 9.77613 146.4 10.0707C146.951 10.3469 147.879 10.6047 149.184 10.844C150.282 11.0449 151.243 11.286 152.065 11.5676C152.953 11.8716 153.68 12.2226 154.245 12.6207C154.356 12.6987 154.46 12.7785 154.559 12.8601C155.643 13.7439 156.185 14.9866 156.185 16.5885C156.185 17.7484 155.854 18.7518 155.193 19.5988C154.531 20.4457 153.613 21.0901 152.436 21.532C151.279 21.9739 149.965 22.1948 148.495 22.1948C146.436 22.1948 144.764 21.9463 143.478 21.4492C142.192 20.9336 141.08 20.1511 140.143 19.1017L142.568 15.7876C142.6 15.832 142.632 15.8758 142.665 15.919C143.139 16.5526 143.653 17.06 144.206 17.4411C144.461 17.6162 144.723 17.7647 144.994 17.8865C145.894 18.2915 146.979 18.4941 148.247 18.4941C149.257 18.4941 150.011 18.356 150.507 18.0798C151.021 17.7852 151.279 17.371 151.279 16.837C151.279 16.4135 151.003 16.0729 150.452 15.8152C149.919 15.539 149.018 15.2812 147.75 15.0419C146.33 14.7572 145.13 14.4269 144.15 14.0508C144.052 14.0134 143.957 13.9755 143.864 13.9372C143.112 13.6085 142.482 13.1984 141.975 12.7068C141.8 12.5374 141.639 12.3584 141.493 12.1697C140.942 11.4332 140.666 10.4942 140.666 9.35266C140.666 8.21113 140.969 7.18928 141.576 6.28711C142.201 5.38494 143.101 4.68529 144.277 4.18817C145.472 3.67265 146.878 3.41488 148.495 3.41488C150.222 3.41488 151.692 3.67265 152.905 4.18817C154.136 4.7037 155.276 5.54144 156.323 6.70137L153.649 9.79454C153.622 9.75364 153.595 9.71323 153.568 9.6733C153.123 9.02481 152.621 8.5058 152.061 8.11627C151.88 7.99008 151.693 7.87747 151.499 7.77846ZM155.754 10.8748C155.844 10.942 155.931 11.0107 156.016 11.081C157.712 12.4675 158.482 14.4094 158.482 16.5885C158.482 18.2195 158.005 19.7327 157.002 21.0172C156.04 22.2489 154.749 23.12 153.248 23.6849C151.787 24.2416 150.191 24.4963 148.495 24.4963C146.28 24.4963 144.298 24.2327 142.651 23.5964L142.625 23.5862C141.005 22.9369 139.6 21.9461 138.431 20.6363L137.189 19.2455L140.607 14.5747C140.269 14.2734 139.958 13.9422 139.678 13.5795L139.666 13.5651L139.656 13.5505C138.741 12.3283 138.369 10.8705 138.369 9.35266C138.369 7.77703 138.796 6.30299 139.671 5.00151L139.688 4.97496C140.599 3.6609 141.87 2.70933 143.376 2.07109C144.917 1.40785 146.642 1.11342 148.495 1.11342C150.437 1.11342 152.228 1.40143 153.796 2.06707C155.386 2.73365 156.792 3.79034 158.026 5.15729L159.391 6.66804L155.754 10.8748ZM191.63 1.38959V24.2201H182.295V16.8738H179.943V24.2201H170.608V1.38959H179.943V8.59778H182.295V1.38959H191.63ZM184.592 10.8992H177.646V3.69106H172.905V21.9187H177.646V14.5724H184.592V21.9187H189.333V3.69106H184.592V10.8992Z" fill="#715DBF"/>
</svg>
