<svg width="160" height="175" viewBox="0 0 160 175" fill="none" xmlns="http://www.w3.org/2000/svg">
<path d="M120.605 37.8623L116.402 53.5452L101.219 48.0957L98.2184 56.4561L114.096 62.1547L109.893 77.8376L92.7522 71.6854L87.7563 85.6047L72.0734 81.4024L77.5229 66.2192L69.1625 63.2184L63.4639 79.0955L47.781 74.8933L53.9332 57.7522L40.014 52.7563L44.2162 37.0734L59.3996 42.5228L62.4002 34.1624L46.5231 28.4639L50.7253 12.781L67.8664 18.9332L72.8625 5.01401L88.5455 9.21627L83.0958 24.3995L91.4562 27.4002L97.1547 11.5231L112.838 15.7254L106.685 32.8664L120.605 37.8623ZM113.434 47.8735L115.384 40.5945L101.14 35.4821L107.166 18.6939L99.8872 16.7435L94.072 32.9453L77.5506 27.0153L82.8736 12.1848L75.5947 10.2344L70.4821 24.4783L53.6939 18.4527L51.7435 25.7316L67.9453 31.5468L62.0154 48.0682L47.1847 42.7452L45.2343 50.0241L59.4783 55.1365L53.4527 71.9248L60.7316 73.8751L66.5468 57.6734L83.0682 63.6034L77.7452 78.4339L85.0241 80.3843L90.1365 66.1404L106.925 72.166L108.875 64.887L92.6734 59.0718L98.6034 42.5505L113.434 47.8735ZM91.535 40.0136L85.605 56.535L69.0837 50.605L75.0136 34.0836L91.535 40.0136ZM82.9891 50.9899L85.9899 42.6295L77.6295 39.6287L74.6289 47.9892L82.9891 50.9899Z" fill="white"/>
<path fill-rule="evenodd" clip-rule="evenodd" d="M28.5629 155.197V174.417H18.3551L18.3391 174.164C17.0477 174.587 15.6384 174.784 14.1545 174.784C11.5285 174.784 9.0769 174.204 6.88173 172.966L6.85922 172.953L6.83692 172.94C4.63158 171.646 2.93529 169.775 1.74757 167.433L1.74027 167.418C0.537821 165.015 0 162.268 0 159.283C0 156.31 0.554296 153.574 1.79448 151.186C3.02786 148.786 4.82141 146.898 7.1418 145.596C9.45841 144.297 12.0975 143.708 14.9523 143.708C18.0064 143.708 20.7863 144.25 23.0676 145.589C25.3956 146.955 27.0936 149.087 28.261 151.716L29.557 154.635L28.156 155.197H28.5629ZM25.5047 152.97C25.0537 151.954 24.5265 151.069 23.9231 150.314C23.2326 149.45 22.4422 148.757 21.5521 148.235C19.884 147.256 17.6841 146.767 14.9523 146.767C12.5106 146.767 10.3953 147.269 8.60633 148.272C6.81737 149.275 5.43939 150.719 4.47239 152.603C3.50539 154.462 3.02188 156.689 3.02188 159.283C3.02188 161.901 3.4933 164.152 4.43613 166.036C5.37895 167.896 6.68441 169.315 8.35249 170.294C10.0447 171.248 11.9788 171.725 14.1545 171.725C15.6927 171.725 17.0202 171.475 18.1371 170.975C19.3373 170.437 20.2944 169.611 21.0081 168.495L21.1895 171.358H25.541V158.255H14.2996V162.513H20.2466V162.88C20.2466 163.531 20.1307 164.106 19.8989 164.603C19.7779 164.862 19.6253 165.101 19.4411 165.318C19.3666 165.406 19.287 165.49 19.2023 165.571C19.0987 165.67 18.9875 165.764 18.8686 165.853C17.9742 166.538 16.7896 166.881 15.3149 166.881C13.6932 166.881 12.4072 166.444 11.457 165.571C11.3958 165.515 11.3361 165.457 11.2777 165.397C10.0528 164.143 9.44037 162.092 9.44037 159.246C9.44037 156.775 9.92387 154.903 10.8909 153.631C11.882 152.358 13.2963 151.722 15.1336 151.722C16.3182 151.722 17.3094 152.016 18.1071 152.603C18.5221 152.908 18.8684 153.296 19.146 153.767C19.3893 154.18 19.5799 154.657 19.7177 155.197C19.7249 155.225 19.732 155.253 19.7389 155.282L25.5047 152.97ZM16.455 155.197C16.404 155.135 16.3601 155.099 16.3297 155.076C16.1455 154.941 15.8109 154.781 15.1336 154.781C14.3676 154.781 13.9069 154.946 13.5863 155.197H16.455ZM60.2802 147.134L68.6568 171.358H62.2384L60.6065 165.89H52.3387L50.6706 171.358H44.3971L52.8101 147.134H60.2802ZM53.6441 161.595H59.3011L57.5605 155.796L56.5089 151.979H56.4363L55.4572 155.759L53.6441 161.595ZM54.5683 168.948L52.9003 174.417H40.1318L50.6692 144.075H62.4241L72.9161 174.417H59.9943L58.3625 168.948H54.5683ZM118.787 174.417H107.231V172.598L106.653 174.417H97.2095L96.6307 172.598V174.417H85.0388V144.075H99.173L102.109 153.675L105.007 144.075H118.787V174.417ZM103.509 159.503L102.131 164.605H102.058L100.716 159.466L96.945 147.134H88.0606V171.358H93.6088V160.237L93.4275 152.786H93.5L99.4108 171.358H104.451L110.362 152.786H110.435L110.253 160.237V171.358H115.765V147.134H107.244L103.509 159.503ZM159.818 163.418V174.417H134.664V144.075H159.347V155.074H156.808V163.418H159.818ZM143.923 166.477V161.522H153.786V156.934H143.923V152.016H156.325V147.134H137.686V171.358H156.796V166.477H143.923Z" fill="white"/>
<path fill-rule="evenodd" clip-rule="evenodd" d="M27.9391 101.161V131.503H15.5326V121.74H12.4065V131.503H0V101.161H12.4065V110.741H15.5326V101.161H27.9391ZM18.5853 113.8H9.35372V104.22H3.05278V128.444H9.35372V118.681H18.5853V128.444H24.8863V104.22H18.5853V113.8ZM62.076 104.22L70.5383 128.444H64.0542L62.4057 122.975H54.0533L52.3682 128.444H46.0306L54.5295 104.22H62.076ZM55.3721 118.681H61.0869L59.3285 112.882L58.2661 109.065H58.1929L57.2038 112.845L55.3721 118.681ZM56.3058 126.034L54.6207 131.503H41.7216L52.3668 101.161H64.2419L74.8412 131.503H61.7872L60.1387 126.034H56.3058ZM105.004 109.652C103.929 109.065 102.635 108.771 101.121 108.771C99.8509 108.771 98.8741 108.991 98.1902 109.432C97.5064 109.872 97.1645 110.46 97.1645 111.194C97.1645 111.805 97.5186 112.307 98.2269 112.698C98.9595 113.065 100.193 113.408 101.927 113.726C103.387 113.993 104.663 114.314 105.756 114.688C106.936 115.092 107.902 115.558 108.653 116.087C108.801 116.191 108.94 116.297 109.07 116.405C110.511 117.58 111.232 119.232 111.232 121.36C111.232 122.902 110.792 124.236 109.913 125.361C109.034 126.487 107.813 127.343 106.25 127.93C104.711 128.518 102.965 128.811 101.011 128.811C98.2757 128.811 96.0533 128.481 94.3437 127.82C92.6342 127.135 91.1566 126.095 89.9111 124.7L93.1348 120.296C93.1774 120.355 93.2201 120.413 93.2632 120.471C93.8938 121.313 94.5768 121.987 95.312 122.494C95.6498 122.726 95.9987 122.924 96.3586 123.086C97.5553 123.624 98.9962 123.893 100.681 123.893C102.025 123.893 103.026 123.709 103.685 123.342C104.369 122.951 104.711 122.4 104.711 121.691C104.711 121.128 104.345 120.675 103.612 120.333C102.904 119.966 101.707 119.623 100.022 119.305C98.1339 118.927 96.5389 118.488 95.2368 117.988C95.1071 117.938 94.9804 117.888 94.8566 117.837C93.8576 117.4 93.0207 116.855 92.3459 116.202C92.1134 115.977 91.9001 115.739 91.7061 115.488C90.9735 114.509 90.6071 113.261 90.6071 111.744C90.6071 110.227 91.0101 108.869 91.816 107.67C92.6464 106.471 93.8431 105.541 95.4061 104.881C96.9935 104.195 98.8618 103.853 101.011 103.853C103.307 103.853 105.26 104.195 106.872 104.881C108.509 105.566 110.023 106.679 111.415 108.221L107.861 112.331C107.826 112.277 107.79 112.223 107.753 112.17C107.162 111.308 106.495 110.619 105.751 110.101C105.51 109.933 105.261 109.784 105.004 109.652ZM110.659 113.767C110.778 113.856 110.894 113.948 111.007 114.041C113.261 115.884 114.284 118.464 114.284 121.36C114.284 123.528 113.65 125.539 112.317 127.246C111.038 128.883 109.323 130.041 107.329 130.792C105.387 131.531 103.265 131.87 101.011 131.87C98.0674 131.87 95.4332 131.52 93.2451 130.674L93.2099 130.66C91.0569 129.798 89.1906 128.481 87.636 126.74L85.9855 124.892L90.5289 118.684C90.0797 118.284 89.6661 117.844 89.2932 117.362L89.2784 117.342L89.2639 117.323C88.048 115.699 87.5543 113.761 87.5543 111.744C87.5543 109.65 88.1213 107.691 89.2839 105.961L89.3077 105.926C90.5171 104.18 92.2067 102.915 94.2088 102.067C96.2558 101.186 98.5487 100.794 101.011 100.794C103.592 100.794 105.972 101.177 108.057 102.062C110.169 102.948 112.038 104.352 113.679 106.169L115.492 108.176L110.659 113.767ZM158.338 101.161V131.503H145.932V121.74H142.806V131.503H130.399V101.161H142.806V110.741H145.932V101.161H158.338ZM148.984 113.8H139.753V104.22H133.452V128.444H139.753V118.681H148.984V128.444H155.285V104.22H148.984V113.8Z" fill="white"/>
</svg>
